<svg width="25" height="22" viewBox="0 0 25 22" fill="none" xmlns="http://www.w3.org/2000/svg" opacity="0.4">
  <path d="M2.83346 5.27214H4.94804M4.94804 5.27214C5.50886 5.27214 6.04671 5.49492 6.44328 5.89148C6.83984 6.28804 7.06262 6.8259 7.06262 7.38672C7.06262 7.94754 6.83984 8.48539 6.44328 8.88195C6.04671 9.27852 5.50886 9.5013 4.94804 9.5013H1.62512M4.94804 5.27214C5.50886 5.27214 6.04671 5.04935 6.44328 4.65279C6.83984 4.25623 7.06262 3.71837 7.06262 3.15755C7.06262 2.59673 6.83984 2.05888 6.44328 1.66232C6.04671 1.26575 5.50886 1.04297 4.94804 1.04297H1.62512M23.3751 13.1263C23.3751 17.1307 18.5055 20.3763 12.5001 20.3763C6.49471 20.3763 1.62512 17.1307 1.62512 13.1263M14.9168 1.04297H13.7085C12.747 1.04297 11.825 1.42489 11.1452 2.10471C10.4654 2.78453 10.0835 3.70656 10.0835 4.66797V7.08464M10.0835 7.08464C10.0835 7.72557 10.3381 8.34026 10.7913 8.79348C11.2445 9.24669 11.8592 9.5013 12.5001 9.5013H13.1043C13.7452 9.5013 14.3599 9.24669 14.8131 8.79348C15.2663 8.34026 15.521 7.72557 15.521 7.08464V6.48047C15.521 5.83953 15.2663 5.22484 14.8131 4.77163C14.3599 4.31841 13.7452 4.0638 13.1043 4.0638M10.0835 7.08464V6.48047C10.0835 5.83953 10.3381 5.22484 10.7913 4.77163M18.5418 5.27214V3.45964C18.5418 2.8187 18.7964 2.20401 19.2496 1.75079C19.7028 1.29758 20.3175 1.04297 20.9585 1.04297H21.5626C22.2036 1.04297 22.8183 1.29758 23.2715 1.75079C23.7247 2.20401 23.9793 2.8187 23.9793 3.45964V7.08464C23.9793 7.72557 23.7247 8.34026 23.2715 8.79348C22.8183 9.24669 22.2036 9.5013 21.5626 9.5013H20.9585C20.3175 9.5013 19.7028 9.24669 19.2496 8.79348C18.7964 8.34026 18.5418 7.72557 18.5418 7.08464V5.27214Z" stroke="#67E9CB" stroke-width="1.4" stroke-linecap="round" stroke-linejoin="round"/>
</svg>
