<svg width="100%" height="100%" viewBox="0 0 20 14" fill="#67e9cb" xmlns="http://www.w3.org/2000/svg">
<mask id="path-1-outside-1_440_2079" maskUnits="userSpaceOnUse" x="0.869964" y="4.38867" width="19" height="10" fill="#67e9cb">
<rect fill="white" x="0.869964" y="4.38867" width="19" height="10"></rect>
<path d="M7.26127 7.48901L2.86967 8.36733C2.54181 8.4329 2.20287 8.33028 1.96645 8.09385L1.57707 7.70447C1.18655 7.31395 1.18655 6.68078 1.57707 6.29026L1.96645 5.90088C2.20287 5.66446 2.54181 5.56184 2.86967 5.62741L7.26127 6.50573L18.0773 6.50573C18.6204 6.50573 19.0606 6.94596 19.0606 7.48901L14.8947 11.6549L13.6526 13.3887L12.6693 13.3887L12.6693 12.4054L14.4384 11.128L18.0773 7.48901L7.26127 7.48901Z"></path>
</mask>
<path d="M7.26127 7.48901L2.86967 8.36733C2.54181 8.4329 2.20287 8.33028 1.96645 8.09385L1.57707 7.70447C1.18655 7.31395 1.18655 6.68078 1.57707 6.29026L1.96645 5.90088C2.20287 5.66446 2.54181 5.56184 2.86967 5.62741L7.26127 6.50573L18.0773 6.50573C18.6204 6.50573 19.0606 6.94596 19.0606 7.48901L14.8947 11.6549L13.6526 13.3887L12.6693 13.3887L12.6693 12.4054L14.4384 11.128L18.0773 7.48901L7.26127 7.48901Z" fill="#67e9cb"></path>
<path d="M13.8984 11.6679L13.7923 11.5619L13.8984 11.6679ZM14.39 12.1596L14.4961 12.2656L14.4961 12.2656L14.39 12.1596ZM7.26127 7.33901L4.80308 7.33901L4.80308 7.63901L7.26127 7.63901L7.26127 7.33901ZM4.80307 6.65573L7.26127 6.65573L7.26127 6.35573L4.80307 6.35573L4.80307 6.65573ZM19.0606 7.33901L18.0773 7.33901L18.0773 7.63901L19.0606 7.63901L19.0606 7.33901ZM14.0045 11.774L14.5444 11.234L14.3323 11.0219L13.7923 11.5619L14.0045 11.774ZM14.7887 11.5488L14.284 12.0535L14.4961 12.2656L15.0008 11.7609L14.7887 11.5488ZM14.0045 12.0535C13.9273 11.9763 13.9273 11.8512 14.0045 11.774L13.7923 11.5619C13.598 11.7562 13.598 12.0713 13.7923 12.2656L14.0045 12.0535ZM13.7923 12.2656C13.9867 12.46 14.3018 12.46 14.4961 12.2656L14.284 12.0535C14.2068 12.1307 14.0816 12.1307 14.0045 12.0535L13.7923 12.2656ZM4.46144 6.99737C4.46144 6.80869 4.61439 6.65573 4.80307 6.65573L4.80307 6.35573C4.44871 6.35573 4.16144 6.643 4.16144 6.99737L4.46144 6.99737ZM4.16144 6.99737C4.16144 7.35173 4.44871 7.63901 4.80308 7.63901L4.80308 7.33901C4.61439 7.33901 4.46144 7.18605 4.46144 6.99737L4.16144 6.99737ZM7.26127 7.48901L7.26127 7.18901L7.23156 7.18901L7.20243 7.19483L7.26127 7.48901ZM2.86967 8.36733L2.92851 8.6615L2.92851 8.6615L2.86967 8.36733ZM1.96645 8.09385L2.17858 7.88172L1.96645 8.09385ZM1.57707 7.70447L1.36494 7.91661L1.36494 7.91661L1.57707 7.70447ZM1.57707 6.29026L1.36494 6.07813L1.36494 6.07813L1.57707 6.29026ZM1.96645 5.90088L2.17858 6.11302L2.17858 6.11302L1.96645 5.90088ZM7.26127 6.50573L7.20243 6.7999L7.23156 6.80573L7.26127 6.80573L7.26127 6.50573ZM2.86967 5.62741L2.92851 5.33323L2.92851 5.33323L2.86967 5.62741ZM19.0606 7.48901L19.2727 7.70114L19.3606 7.61327L19.3606 7.48901L19.0606 7.48901ZM18.0773 7.48901L18.2895 7.70114L18.8016 7.18901L18.0773 7.18901L18.0773 7.48901ZM14.4384 11.128L14.614 11.3712L14.6335 11.3571L14.6505 11.3401L14.4384 11.128ZM12.6693 12.4054L12.4937 12.1622L12.3693 12.252L12.3693 12.4054L12.6693 12.4054ZM12.6693 13.3887L12.3693 13.3887L12.3693 13.6887L12.6693 13.6887L12.6693 13.3887ZM13.6526 13.3887L13.6526 13.6887L13.8067 13.6887L13.8964 13.5634L13.6526 13.3887ZM14.8947 11.6549L14.6826 11.4427L14.6652 11.4601L14.6509 11.4801L14.8947 11.6549ZM7.20243 7.19483L2.81084 8.07315L2.92851 8.6615L7.3201 7.78318L7.20243 7.19483ZM2.17858 7.88172L1.7892 7.49234L1.36494 7.91661L1.75432 8.30598L2.17858 7.88172ZM1.7892 6.50239L2.17858 6.11302L1.75432 5.68875L1.36494 6.07813L1.7892 6.50239ZM7.26127 6.80573L18.0773 6.80573L18.0773 6.20573L7.26127 6.20573L7.26127 6.80573ZM2.81084 5.92158L7.20243 6.7999L7.3201 6.21155L2.92851 5.33323L2.81084 5.92158ZM18.0773 7.18901L7.26127 7.18901L7.26127 7.78901L18.0773 7.78901L18.0773 7.18901ZM14.6505 11.3401L18.2895 7.70114L17.8652 7.27687L14.2262 10.9158L14.6505 11.3401ZM14.2627 10.8847L12.4937 12.1622L12.8449 12.6486L14.614 11.3712L14.2627 10.8847ZM12.3693 12.4054L12.3693 13.3887L12.9693 13.3887L12.9693 12.4054L12.3693 12.4054ZM12.6693 13.6887L13.6526 13.6887L13.6526 13.0887L12.6693 13.0887L12.6693 13.6887ZM18.8485 7.27687L14.6826 11.4427L15.1069 11.867L19.2727 7.70114L18.8485 7.27687ZM13.8964 13.5634L15.1386 11.8296L14.6509 11.4801L13.4087 13.214L13.8964 13.5634ZM2.17858 6.11302C2.34408 5.94752 2.58133 5.87568 2.81084 5.92158L2.92851 5.33323C2.50229 5.24799 2.06167 5.3814 1.75432 5.68875L2.17858 6.11302ZM19.3606 7.48901C19.3606 6.78027 18.7861 6.20573 18.0773 6.20573L18.0773 6.80573C18.4547 6.80573 18.7606 7.11164 18.7606 7.48901L19.3606 7.48901ZM1.7892 7.49234C1.51584 7.21898 1.51584 6.77576 1.7892 6.50239L1.36494 6.07813C0.857257 6.58581 0.857258 7.40893 1.36494 7.91661L1.7892 7.49234ZM2.81084 8.07315C2.58133 8.11905 2.34408 8.04722 2.17858 7.88172L1.75432 8.30598C2.06167 8.61333 2.50229 8.74674 2.92851 8.6615L2.81084 8.07315Z" fill="currentColor" mask="url(#path-1-outside-1_440_2079)"></path>
<mask id="path-3-outside-2_440_2079" maskUnits="userSpaceOnUse" x="-0.130035" y="-0.394532" width="20" height="10" fill="#67e9cb">
<rect fill="white" x="-0.130035" y="-0.394532" width="20" height="10"></rect>
<path d="M7.26127 6.50513L2.34488 5.52186L0.869965 6.99677L2.34488 8.47169L7.26127 7.48841L18.3091 7.4961C18.7517 7.49641 19.1763 7.32072 19.4892 7.00774C19.4955 7.00148 19.4958 6.99142 19.4899 6.98483L19.0606 6.50513L14.8948 2.33928L13.6526 0.605468L12.6693 0.605468L12.6693 1.58875L14.4384 2.86618L18.0773 6.50513L7.26127 6.50513Z"></path>
</mask>
<path d="M7.26127 6.50513L2.34488 5.52186L0.869965 6.99677L2.34488 8.47169L7.26127 7.48841L18.3091 7.4961C18.7517 7.49641 19.1763 7.32072 19.4892 7.00774C19.4955 7.00148 19.4958 6.99142 19.4899 6.98483L19.0606 6.50513L14.8948 2.33928L13.6526 0.605468L12.6693 0.605468L12.6693 1.58875L14.4384 2.86618L18.0773 6.50513L7.26127 6.50513Z" fill="#67e9cb"></path>
<path d="M13.8984 2.3262L14.0045 2.22014L14.0045 2.22014L13.8984 2.3262ZM14.39 1.83457L14.284 1.94063L14.284 1.94063L14.39 1.83457ZM13.8984 1.83457L14.0045 1.94063L14.0045 1.94063L13.8984 1.83457ZM7.26127 6.65513L4.80308 6.65513L4.80308 6.35513L7.26127 6.35513L7.26127 6.65513ZM4.80308 7.33841L7.26127 7.33841L7.26127 7.63841L4.80308 7.63841L4.80308 7.33841ZM19.0606 6.65513L18.0773 6.65513L18.0773 6.35513L19.0606 6.35513L19.0606 6.65513ZM14.0045 2.22014L14.5444 2.76011L14.3323 2.97224L13.7923 2.43227L14.0045 2.22014ZM14.7887 2.44535L14.284 1.94063L14.4961 1.7285L15.0008 2.23322L14.7887 2.44535ZM13.7923 1.7285C13.9867 1.53416 14.3018 1.53416 14.4961 1.7285L14.284 1.94063C14.2068 1.86345 14.0816 1.86345 14.0045 1.94063L13.7923 1.7285ZM4.46144 6.99677C4.46144 7.18546 4.61439 7.33841 4.80308 7.33841L4.80308 7.63841C4.44871 7.63841 4.16144 7.35114 4.16144 6.99677L4.46144 6.99677ZM14.0045 1.94063C13.9273 2.01782 13.9273 2.14295 14.0045 2.22014L13.7923 2.43227C13.598 2.23793 13.598 1.92284 13.7923 1.7285L14.0045 1.94063ZM4.16144 6.99677C4.16144 6.64241 4.44871 6.35513 4.80308 6.35513L4.80308 6.65513C4.61439 6.65513 4.46144 6.80809 4.46144 6.99677L4.16144 6.99677ZM7.26127 6.50513L7.26127 6.80513L7.23156 6.80513L7.20244 6.79931L7.26127 6.50513ZM2.34488 5.52186L2.13275 5.30972L2.24628 5.1962L2.40372 5.22768L2.34488 5.52186ZM0.869965 6.99677L0.657833 7.20891L0.445701 6.99677L0.657833 6.78464L0.869965 6.99677ZM2.34488 8.47169L2.40372 8.76586L2.24628 8.79735L2.13275 8.68382L2.34488 8.47169ZM7.26127 7.48841L7.20244 7.19424L7.23167 7.18839L7.26148 7.18841L7.26127 7.48841ZM18.3091 7.4961L18.3089 7.7961L18.3091 7.4961ZM19.0606 6.50513L19.2727 6.293L19.2786 6.29888L19.2842 6.30508L19.0606 6.50513ZM18.0773 6.50513L18.2895 6.293L18.8016 6.80513L18.0773 6.80513L18.0773 6.50513ZM14.4384 2.86618L14.614 2.62296L14.6335 2.63704L14.6505 2.65405L14.4384 2.86618ZM12.6693 1.58875L12.4937 1.83196L12.3693 1.74216L12.3693 1.58875L12.6693 1.58875ZM12.6693 0.605468L12.3693 0.605468L12.3693 0.305468L12.6693 0.305468L12.6693 0.605468ZM13.6526 0.605468L13.6526 0.305468L13.8067 0.305468L13.8964 0.430749L13.6526 0.605468ZM14.8948 2.33928L14.6826 2.55142L14.6652 2.53401L14.6509 2.514L14.8948 2.33928ZM19.4899 6.98483L19.7134 6.78477L19.7134 6.78477L19.4899 6.98483ZM19.4892 7.00774L19.2771 6.7956L19.2771 6.7956L19.4892 7.00774ZM7.20244 6.79931L2.28605 5.81603L2.40372 5.22768L7.32011 6.21096L7.20244 6.79931ZM2.55701 5.73399L1.0821 7.20891L0.657833 6.78464L2.13275 5.30972L2.55701 5.73399ZM1.0821 6.78464L2.55701 8.25956L2.13275 8.68382L0.657833 7.20891L1.0821 6.78464ZM7.26148 7.18841L18.3093 7.1961L18.3089 7.7961L7.26106 7.78841L7.26148 7.18841ZM2.28605 8.17752L7.20244 7.19424L7.32011 7.78259L2.40372 8.76586L2.28605 8.17752ZM18.0773 6.80513L7.26127 6.80513L7.26127 6.20513L18.0773 6.20513L18.0773 6.80513ZM14.6505 2.65405L18.2895 6.293L17.8652 6.71727L14.2262 3.07831L14.6505 2.65405ZM14.2627 3.1094L12.4937 1.83196L12.8449 1.34553L14.614 2.62296L14.2627 3.1094ZM12.3693 1.58875L12.3693 0.605468L12.9693 0.605468L12.9693 1.58875L12.3693 1.58875ZM12.6693 0.305468L13.6526 0.305468L13.6526 0.905468L12.6693 0.905468L12.6693 0.305468ZM18.8485 6.71727L14.6826 2.55142L15.1069 2.12715L19.2727 6.293L18.8485 6.71727ZM13.8964 0.430749L15.1386 2.16456L14.6509 2.514L13.4087 0.780188L13.8964 0.430749ZM19.2663 7.18489L18.837 6.70519L19.2842 6.30508L19.7134 6.78477L19.2663 7.18489ZM19.2771 6.7956C19.1708 6.90194 19.166 7.07283 19.2663 7.18488L19.7134 6.78477C19.8255 6.91002 19.8202 7.10102 19.7014 7.21988L19.2771 6.7956ZM18.3093 7.1961C18.6723 7.19635 19.0204 7.05227 19.2771 6.7956L19.7014 7.21987C19.3321 7.58916 18.8311 7.79646 18.3089 7.7961L18.3093 7.1961Z" fill="currentColor" mask="url(#path-3-outside-2_440_2079)"></path>
</svg>