<svg width="14" height="22" viewBox="0 0 14 22" fill="none" xmlns="http://www.w3.org/2000/svg">
<path d="M0.812744 8.9375C0.99508 8.9375 1.16995 9.00993 1.29888 9.13886C1.42781 9.2678 1.50024 9.44266 1.50024 9.625V11C1.50024 12.4587 2.07971 13.8576 3.11116 14.8891C4.14261 15.9205 5.54155 16.5 7.00024 16.5C8.45893 16.5 9.85788 15.9205 10.8893 14.8891C11.9208 13.8576 12.5002 12.4587 12.5002 11V9.625C12.5002 9.44266 12.5727 9.2678 12.7016 9.13886C12.8305 9.00993 13.0054 8.9375 13.1877 8.9375C13.3701 8.9375 13.5449 9.00993 13.6739 9.13886C13.8028 9.2678 13.8752 9.44266 13.8752 9.625V11C13.8753 12.7044 13.2422 14.348 12.0989 15.6119C10.9556 16.8759 9.38355 17.6702 7.68774 17.8406V20.625H11.8127C11.9951 20.625 12.1699 20.6974 12.2989 20.8264C12.4278 20.9553 12.5002 21.1302 12.5002 21.3125C12.5002 21.4948 12.4278 21.6697 12.2989 21.7986C12.1699 21.9276 11.9951 22 11.8127 22H2.18774C2.00541 22 1.83054 21.9276 1.70161 21.7986C1.57268 21.6697 1.50024 21.4948 1.50024 21.3125C1.50024 21.1302 1.57268 20.9553 1.70161 20.8264C1.83054 20.6974 2.00541 20.625 2.18774 20.625H6.31274V17.8406C4.61694 17.6702 3.04488 16.8759 1.90158 15.6119C0.758272 14.348 0.125223 12.7044 0.125244 11V9.625C0.125244 9.44266 0.197677 9.2678 0.326608 9.13886C0.45554 9.00993 0.630408 8.9375 0.812744 8.9375Z" fill="#67E9CB"/>
<path d="M9.75024 11C9.75024 11.7293 9.46051 12.4288 8.94479 12.9445C8.42906 13.4603 7.72959 13.75 7.00024 13.75C6.2709 13.75 5.57143 13.4603 5.0557 12.9445C4.53998 12.4288 4.25024 11.7293 4.25024 11V4.125C4.25024 3.39565 4.53998 2.69618 5.0557 2.18046C5.57143 1.66473 6.2709 1.375 7.00024 1.375C7.72959 1.375 8.42906 1.66473 8.94479 2.18046C9.46051 2.69618 9.75024 3.39565 9.75024 4.125V11ZM7.00024 0C5.90623 0 4.85702 0.434597 4.08343 1.20818C3.30984 1.98177 2.87524 3.03098 2.87524 4.125V11C2.87524 12.094 3.30984 13.1432 4.08343 13.9168C4.85702 14.6904 5.90623 15.125 7.00024 15.125C8.09426 15.125 9.14347 14.6904 9.91706 13.9168C10.6906 13.1432 11.1252 12.094 11.1252 11V4.125C11.1252 3.03098 10.6906 1.98177 9.91706 1.20818C9.14347 0.434597 8.09426 0 7.00024 0V0Z" fill="#67E9CB"/>
</svg>
