<svg width="24" height="24" viewBox="0 0 24 24" fill="none" xmlns="http://www.w3.org/2000/svg" opacity="0.4">
  <path d="M12.0006 21.1181C13.1911 22.186 14.7346 22.7757 16.3339 22.7734C19.9235 22.7734 22.8339 19.8631 22.8339 16.2734C22.8339 13.4021 20.9722 10.9651 18.3901 10.1055" stroke="#67E9CB" stroke-width="1.4" stroke-linecap="round" stroke-linejoin="round"/>
  <path d="M13.7185 13.8967C14.0083 14.6334 14.1676 15.435 14.1676 16.2746C14.1676 19.8642 11.2572 22.7746 7.66757 22.7746C4.07741 22.7746 1.16757 19.8642 1.16757 16.2746C1.16757 13.3957 3.03903 10.9538 5.63199 10.0996" stroke="#67E9CB" stroke-width="1.4" stroke-linecap="round" stroke-linejoin="round"/>
  <path d="M12.0006 14.1074C15.5902 14.1074 18.5006 11.197 18.5006 7.60742C18.5006 4.01726 15.5902 1.10742 12.0006 1.10742C8.41094 1.10742 5.50056 4.01726 5.50056 7.60742C5.50056 11.197 8.41094 14.1074 12.0006 14.1074Z" stroke="#67E9CB" stroke-width="1.4" stroke-linecap="round" stroke-linejoin="round"/>
</svg>
